<mxfile host="app.diagrams.net" modified="2023-08-21T20:11:24.649Z" agent="Mozilla/5.0 (Windows NT 10.0; Win64; x64; rv:109.0) Gecko/20100101 Firefox/116.0" etag="Eu0jVRFYkLDB6i0LrM83" version="21.6.8" type="device">
  <diagram name="Page-1" id="Ks-X8nwVetvujPSjKnEU">
    <mxGraphModel dx="2227" dy="731" grid="1" gridSize="1" guides="1" tooltips="1" connect="1" arrows="1" fold="1" page="1" pageScale="1" pageWidth="827" pageHeight="1169" math="0" shadow="0">
      <root>
        <mxCell id="0" />
        <mxCell id="1" parent="0" />
        <mxCell id="Bg1a5HAyLtSF39ObznLx-19" style="edgeStyle=orthogonalEdgeStyle;rounded=0;orthogonalLoop=1;jettySize=auto;html=1;exitX=0.5;exitY=1;exitDx=0;exitDy=0;entryX=0.5;entryY=0;entryDx=0;entryDy=0;" parent="1" source="Bg1a5HAyLtSF39ObznLx-17" target="Bg1a5HAyLtSF39ObznLx-18" edge="1">
          <mxGeometry relative="1" as="geometry" />
        </mxCell>
        <mxCell id="Bg1a5HAyLtSF39ObznLx-20" value="Path Description" style="edgeLabel;html=1;align=center;verticalAlign=middle;resizable=0;points=[];" parent="Bg1a5HAyLtSF39ObznLx-19" vertex="1" connectable="0">
          <mxGeometry x="-0.2167" y="-1" relative="1" as="geometry">
            <mxPoint x="56" y="2" as="offset" />
          </mxGeometry>
        </mxCell>
        <mxCell id="Bg1a5HAyLtSF39ObznLx-17" value="Path Planning Node" style="rounded=1;whiteSpace=wrap;html=1;verticalAlign=top;" parent="1" vertex="1">
          <mxGeometry x="265" y="277" width="145" height="90" as="geometry" />
        </mxCell>
        <mxCell id="Bg1a5HAyLtSF39ObznLx-9" style="edgeStyle=orthogonalEdgeStyle;rounded=0;orthogonalLoop=1;jettySize=auto;html=1;entryX=0.5;entryY=0;entryDx=0;entryDy=0;" parent="1" source="Bg1a5HAyLtSF39ObznLx-1" target="Bg1a5HAyLtSF39ObznLx-17" edge="1">
          <mxGeometry relative="1" as="geometry">
            <mxPoint x="337.5" y="257" as="targetPoint" />
            <mxPoint x="337.5" y="197" as="sourcePoint" />
          </mxGeometry>
        </mxCell>
        <mxCell id="Bg1a5HAyLtSF39ObznLx-10" value="Target Position/ Position Setpoint" style="edgeLabel;html=1;align=center;verticalAlign=middle;resizable=0;points=[];" parent="Bg1a5HAyLtSF39ObznLx-9" vertex="1" connectable="0">
          <mxGeometry x="-0.1125" y="2" relative="1" as="geometry">
            <mxPoint x="93" as="offset" />
          </mxGeometry>
        </mxCell>
        <mxCell id="Bg1a5HAyLtSF39ObznLx-1" value="" style="shape=umlActor;verticalLabelPosition=bottom;verticalAlign=top;html=1;outlineConnect=0;" parent="1" vertex="1">
          <mxGeometry x="322.5" y="64" width="30" height="60" as="geometry" />
        </mxCell>
        <mxCell id="Bg1a5HAyLtSF39ObznLx-8" value="" style="shape=image;html=1;verticalAlign=top;verticalLabelPosition=bottom;labelBackgroundColor=#ffffff;imageAspect=0;aspect=fixed;image=https://cdn4.iconfinder.com/data/icons/ionicons/512/icon-map-128.png" parent="1" vertex="1">
          <mxGeometry x="307.5" y="297" width="60" height="60" as="geometry" />
        </mxCell>
        <mxCell id="Bg1a5HAyLtSF39ObznLx-16" value="" style="group" parent="1" vertex="1" connectable="0">
          <mxGeometry x="272.5" y="377" width="60" height="48" as="geometry" />
        </mxCell>
        <mxCell id="Bg1a5HAyLtSF39ObznLx-11" value="" style="shape=image;html=1;verticalAlign=top;verticalLabelPosition=bottom;labelBackgroundColor=#ffffff;imageAspect=0;aspect=fixed;image=https://cdn1.iconfinder.com/data/icons/ui-essential-17/32/UI_Essential_Outline_2_essential-app-ui-location-map-pin-22-128.png" parent="Bg1a5HAyLtSF39ObznLx-16" vertex="1">
          <mxGeometry y="35.294117647058826" width="12.705882352941176" height="12.705882352941176" as="geometry" />
        </mxCell>
        <mxCell id="Bg1a5HAyLtSF39ObznLx-12" value="" style="curved=1;endArrow=classic;html=1;rounded=0;" parent="Bg1a5HAyLtSF39ObznLx-16" edge="1">
          <mxGeometry width="50" height="50" relative="1" as="geometry">
            <mxPoint x="7.5" y="49.41176470588235" as="sourcePoint" />
            <mxPoint x="45" y="14.117647058823529" as="targetPoint" />
            <Array as="points">
              <mxPoint x="60" y="35.294117647058826" />
              <mxPoint x="7.5" y="28.235294117647058" />
            </Array>
          </mxGeometry>
        </mxCell>
        <mxCell id="Bg1a5HAyLtSF39ObznLx-13" value="" style="shape=image;html=1;verticalAlign=top;verticalLabelPosition=bottom;labelBackgroundColor=#ffffff;imageAspect=0;aspect=fixed;image=https://cdn1.iconfinder.com/data/icons/ui-essential-17/32/UI_Essential_Outline_2_essential-app-ui-location-map-pin-22-128.png" parent="Bg1a5HAyLtSF39ObznLx-16" vertex="1">
          <mxGeometry x="37.5" width="12.705882352941176" height="12.705882352941176" as="geometry" />
        </mxCell>
        <mxCell id="Bg1a5HAyLtSF39ObznLx-36" style="edgeStyle=orthogonalEdgeStyle;rounded=0;orthogonalLoop=1;jettySize=auto;html=1;entryX=0.25;entryY=0;entryDx=0;entryDy=0;" parent="1" source="Bg1a5HAyLtSF39ObznLx-18" target="Bg1a5HAyLtSF39ObznLx-35" edge="1">
          <mxGeometry relative="1" as="geometry">
            <mxPoint x="337.5" y="613" as="targetPoint" />
          </mxGeometry>
        </mxCell>
        <mxCell id="Bg1a5HAyLtSF39ObznLx-39" value="Point (Position Setpoint)" style="edgeLabel;html=1;align=center;verticalAlign=middle;resizable=0;points=[];" parent="Bg1a5HAyLtSF39ObznLx-36" vertex="1" connectable="0">
          <mxGeometry x="0.225" y="1" relative="1" as="geometry">
            <mxPoint x="-72" y="14" as="offset" />
          </mxGeometry>
        </mxCell>
        <mxCell id="mINiVnQ1aUE4iXKp3jBi-83" style="edgeStyle=orthogonalEdgeStyle;rounded=0;orthogonalLoop=1;jettySize=auto;html=1;exitX=0;exitY=0.5;exitDx=0;exitDy=0;entryX=0.5;entryY=0;entryDx=0;entryDy=0;" edge="1" parent="1" source="Bg1a5HAyLtSF39ObznLx-18" target="mINiVnQ1aUE4iXKp3jBi-56">
          <mxGeometry relative="1" as="geometry" />
        </mxCell>
        <mxCell id="mINiVnQ1aUE4iXKp3jBi-84" value="Height Setpoint" style="edgeLabel;html=1;align=center;verticalAlign=middle;resizable=0;points=[];" vertex="1" connectable="0" parent="mINiVnQ1aUE4iXKp3jBi-83">
          <mxGeometry x="0.0762" relative="1" as="geometry">
            <mxPoint x="52" y="-1" as="offset" />
          </mxGeometry>
        </mxCell>
        <mxCell id="Bg1a5HAyLtSF39ObznLx-18" value="Waypoint Controller" style="rounded=1;whiteSpace=wrap;html=1;verticalAlign=top;" parent="1" vertex="1">
          <mxGeometry x="265" y="447" width="145" height="90" as="geometry" />
        </mxCell>
        <mxCell id="Bg1a5HAyLtSF39ObznLx-23" value="" style="shape=image;html=1;verticalAlign=top;verticalLabelPosition=bottom;labelBackgroundColor=#ffffff;imageAspect=0;aspect=fixed;image=https://cdn1.iconfinder.com/data/icons/ui-essential-17/32/UI_Essential_Outline_2_essential-app-ui-location-map-pin-22-128.png" parent="1" vertex="1">
          <mxGeometry x="308.5" y="514.0041176470588" width="12.705882352941176" height="12.705882352941176" as="geometry" />
        </mxCell>
        <mxCell id="Bg1a5HAyLtSF39ObznLx-24" value="" style="curved=1;endArrow=classic;html=1;rounded=0;" parent="1" edge="1">
          <mxGeometry width="50" height="50" relative="1" as="geometry">
            <mxPoint x="315" y="526.4117647058823" as="sourcePoint" />
            <mxPoint x="352.5" y="491.11764705882354" as="targetPoint" />
            <Array as="points">
              <mxPoint x="367.5" y="512.2941176470588" />
              <mxPoint x="315" y="505.2352941176471" />
            </Array>
          </mxGeometry>
        </mxCell>
        <mxCell id="Bg1a5HAyLtSF39ObznLx-25" value="" style="shape=image;html=1;verticalAlign=top;verticalLabelPosition=bottom;labelBackgroundColor=#ffffff;imageAspect=0;aspect=fixed;image=https://cdn1.iconfinder.com/data/icons/ui-essential-17/32/UI_Essential_Outline_2_essential-app-ui-location-map-pin-22-128.png" parent="1" vertex="1">
          <mxGeometry x="345.62999999999994" y="479" width="12.705882352941176" height="12.705882352941176" as="geometry" />
        </mxCell>
        <mxCell id="Bg1a5HAyLtSF39ObznLx-26" value="" style="shape=image;html=1;verticalAlign=top;verticalLabelPosition=bottom;labelBackgroundColor=#ffffff;imageAspect=0;aspect=fixed;image=https://cdn1.iconfinder.com/data/icons/ui-essential-17/32/UI_Essential_Outline_2_essential-app-ui-location-map-pin-22-128.png" parent="1" vertex="1">
          <mxGeometry x="321.21" y="510.0041176470588" width="12.705882352941176" height="12.705882352941176" as="geometry" />
        </mxCell>
        <mxCell id="Bg1a5HAyLtSF39ObznLx-27" value="" style="shape=image;html=1;verticalAlign=top;verticalLabelPosition=bottom;labelBackgroundColor=#ffffff;imageAspect=0;aspect=fixed;image=https://cdn1.iconfinder.com/data/icons/ui-essential-17/32/UI_Essential_Outline_2_essential-app-ui-location-map-pin-22-128.png" parent="1" vertex="1">
          <mxGeometry x="332.91999999999996" y="506.0041176470588" width="12.705882352941176" height="12.705882352941176" as="geometry" />
        </mxCell>
        <mxCell id="Bg1a5HAyLtSF39ObznLx-28" value="" style="shape=image;html=1;verticalAlign=top;verticalLabelPosition=bottom;labelBackgroundColor=#ffffff;imageAspect=0;aspect=fixed;image=https://cdn1.iconfinder.com/data/icons/ui-essential-17/32/UI_Essential_Outline_2_essential-app-ui-location-map-pin-22-128.png" parent="1" vertex="1">
          <mxGeometry x="342.5" y="498.0041176470589" width="12.705882352941176" height="12.705882352941176" as="geometry" />
        </mxCell>
        <mxCell id="Bg1a5HAyLtSF39ObznLx-30" value="" style="shape=image;html=1;verticalAlign=top;verticalLabelPosition=bottom;labelBackgroundColor=#ffffff;imageAspect=0;aspect=fixed;image=https://cdn1.iconfinder.com/data/icons/ui-essential-17/32/UI_Essential_Outline_2_essential-app-ui-location-map-pin-22-128.png" parent="1" vertex="1">
          <mxGeometry x="322.5" y="489.70411764705887" width="12.705882352941176" height="12.705882352941176" as="geometry" />
        </mxCell>
        <mxCell id="Bg1a5HAyLtSF39ObznLx-31" value="" style="shape=image;html=1;verticalAlign=top;verticalLabelPosition=bottom;labelBackgroundColor=#ffffff;imageAspect=0;aspect=fixed;image=https://cdn1.iconfinder.com/data/icons/ui-essential-17/32/UI_Essential_Outline_2_essential-app-ui-location-map-pin-22-128.png" parent="1" vertex="1">
          <mxGeometry x="332.92" y="483.0041176470589" width="12.705882352941176" height="12.705882352941176" as="geometry" />
        </mxCell>
        <mxCell id="Bg1a5HAyLtSF39ObznLx-44" style="edgeStyle=orthogonalEdgeStyle;rounded=0;orthogonalLoop=1;jettySize=auto;html=1;" parent="1" source="Bg1a5HAyLtSF39ObznLx-35" target="Bg1a5HAyLtSF39ObznLx-41" edge="1">
          <mxGeometry relative="1" as="geometry" />
        </mxCell>
        <mxCell id="Bg1a5HAyLtSF39ObznLx-50" value="Heading Command" style="edgeLabel;html=1;align=center;verticalAlign=middle;resizable=0;points=[];" parent="Bg1a5HAyLtSF39ObznLx-44" vertex="1" connectable="0">
          <mxGeometry x="-0.0494" relative="1" as="geometry">
            <mxPoint x="58" as="offset" />
          </mxGeometry>
        </mxCell>
        <mxCell id="Bg1a5HAyLtSF39ObznLx-35" value="Rover Controller" style="rounded=1;whiteSpace=wrap;html=1;verticalAlign=top;" parent="1" vertex="1">
          <mxGeometry x="439.5" y="622" width="145" height="90" as="geometry" />
        </mxCell>
        <mxCell id="Bg1a5HAyLtSF39ObznLx-38" value="" style="shape=image;html=1;verticalAlign=top;verticalLabelPosition=bottom;labelBackgroundColor=#ffffff;imageAspect=0;aspect=fixed;image=https://cdn1.iconfinder.com/data/icons/ui-essential-17/32/UI_Essential_Outline_2_essential-app-ui-location-map-pin-22-128.png" parent="1" vertex="1">
          <mxGeometry x="406" y="571.0041176470588" width="12.705882352941176" height="12.705882352941176" as="geometry" />
        </mxCell>
        <mxCell id="Bg1a5HAyLtSF39ObznLx-53" style="edgeStyle=orthogonalEdgeStyle;rounded=0;orthogonalLoop=1;jettySize=auto;html=1;exitX=0.5;exitY=1;exitDx=0;exitDy=0;entryX=0.198;entryY=0.011;entryDx=0;entryDy=0;entryPerimeter=0;" parent="1" source="Bg1a5HAyLtSF39ObznLx-41" target="Bg1a5HAyLtSF39ObznLx-51" edge="1">
          <mxGeometry relative="1" as="geometry">
            <mxPoint x="511" y="952" as="targetPoint" />
          </mxGeometry>
        </mxCell>
        <mxCell id="Bg1a5HAyLtSF39ObznLx-54" value="&lt;div&gt;Wheel RPM/RPS&lt;/div&gt;&lt;div&gt;Command&lt;/div&gt;" style="edgeLabel;html=1;align=center;verticalAlign=middle;resizable=0;points=[];" parent="Bg1a5HAyLtSF39ObznLx-53" vertex="1" connectable="0">
          <mxGeometry x="-0.1782" y="1" relative="1" as="geometry">
            <mxPoint x="50" y="7" as="offset" />
          </mxGeometry>
        </mxCell>
        <mxCell id="Bg1a5HAyLtSF39ObznLx-41" value="Inverse Kinematics" style="rounded=1;whiteSpace=wrap;html=1;verticalAlign=top;" parent="1" vertex="1">
          <mxGeometry x="439.5" y="793" width="145" height="90" as="geometry" />
        </mxCell>
        <mxCell id="Bg1a5HAyLtSF39ObznLx-40" value="" style="shape=image;html=1;verticalAlign=top;verticalLabelPosition=bottom;labelBackgroundColor=#ffffff;imageAspect=0;aspect=fixed;image=https://cdn2.iconfinder.com/data/icons/boxicons-regular-vol-1/24/bx-calculator-128.png" parent="1" vertex="1">
          <mxGeometry x="492.5" y="829" width="39" height="39" as="geometry" />
        </mxCell>
        <mxCell id="Bg1a5HAyLtSF39ObznLx-47" value="" style="shape=mxgraph.signs.healthcare.brain;html=1;pointerEvents=1;fillColor=#000000;strokeColor=none;verticalLabelPosition=bottom;verticalAlign=top;align=center;" parent="1" vertex="1">
          <mxGeometry x="477" y="651" width="63" height="53" as="geometry" />
        </mxCell>
        <mxCell id="Bg1a5HAyLtSF39ObznLx-49" value="" style="shape=image;html=1;verticalAlign=top;verticalLabelPosition=bottom;labelBackgroundColor=#ffffff;imageAspect=0;aspect=fixed;image=https://cdn3.iconfinder.com/data/icons/essential-pack-2/48/20-Compass-128.png" parent="1" vertex="1">
          <mxGeometry x="467" y="734" width="32" height="32" as="geometry" />
        </mxCell>
        <mxCell id="Bg1a5HAyLtSF39ObznLx-51" value="Rover (Rover Interface &amp;amp; Rover Mega Controller)" style="rounded=1;whiteSpace=wrap;html=1;verticalAlign=top;" parent="1" vertex="1">
          <mxGeometry x="439.5" y="954" width="366.5" height="90" as="geometry" />
        </mxCell>
        <mxCell id="Bg1a5HAyLtSF39ObznLx-52" value="" style="shape=mxgraph.signs.transportation.car_3;html=1;pointerEvents=1;fillColor=#000000;strokeColor=none;verticalLabelPosition=bottom;verticalAlign=top;align=center;" parent="1" vertex="1">
          <mxGeometry x="537" y="992" width="99" height="38" as="geometry" />
        </mxCell>
        <mxCell id="Bg1a5HAyLtSF39ObznLx-56" value="" style="shape=image;html=1;verticalAlign=top;verticalLabelPosition=bottom;labelBackgroundColor=#ffffff;imageAspect=0;aspect=fixed;image=https://cdn2.iconfinder.com/data/icons/essential-web-3/50/dashboard-control-gauge-measuring-amount-128.png" parent="1" vertex="1">
          <mxGeometry x="465.5" y="903" width="35" height="35" as="geometry" />
        </mxCell>
        <mxCell id="Bg1a5HAyLtSF39ObznLx-59" style="edgeStyle=orthogonalEdgeStyle;rounded=0;orthogonalLoop=1;jettySize=auto;html=1;exitX=0.841;exitY=-0.009;exitDx=0;exitDy=0;exitPerimeter=0;" parent="1" source="Bg1a5HAyLtSF39ObznLx-51" target="Bg1a5HAyLtSF39ObznLx-57" edge="1">
          <mxGeometry relative="1" as="geometry">
            <mxPoint x="723.52" y="908" as="sourcePoint" />
          </mxGeometry>
        </mxCell>
        <mxCell id="mINiVnQ1aUE4iXKp3jBi-3" value="&lt;div&gt;Wheel RPM/RPS&lt;/div&gt;&lt;div&gt;Feedback&lt;br&gt;&lt;/div&gt;" style="edgeLabel;html=1;align=center;verticalAlign=middle;resizable=0;points=[];" vertex="1" connectable="0" parent="Bg1a5HAyLtSF39ObznLx-59">
          <mxGeometry x="-0.1375" relative="1" as="geometry">
            <mxPoint x="53" y="-3" as="offset" />
          </mxGeometry>
        </mxCell>
        <mxCell id="mINiVnQ1aUE4iXKp3jBi-7" style="edgeStyle=orthogonalEdgeStyle;rounded=0;orthogonalLoop=1;jettySize=auto;html=1;entryX=0.75;entryY=0;entryDx=0;entryDy=0;" edge="1" parent="1" source="Bg1a5HAyLtSF39ObznLx-57" target="mINiVnQ1aUE4iXKp3jBi-4">
          <mxGeometry relative="1" as="geometry">
            <Array as="points">
              <mxPoint x="748" y="662" />
              <mxPoint x="750" y="662" />
              <mxPoint x="750" y="371" />
              <mxPoint x="693" y="371" />
            </Array>
          </mxGeometry>
        </mxCell>
        <mxCell id="mINiVnQ1aUE4iXKp3jBi-9" value="Heading Feedback" style="edgeLabel;html=1;align=center;verticalAlign=middle;resizable=0;points=[];" vertex="1" connectable="0" parent="mINiVnQ1aUE4iXKp3jBi-7">
          <mxGeometry x="-0.2241" y="-1" relative="1" as="geometry">
            <mxPoint x="54" y="81" as="offset" />
          </mxGeometry>
        </mxCell>
        <mxCell id="Bg1a5HAyLtSF39ObznLx-57" value="Forward Kinematics" style="rounded=1;whiteSpace=wrap;html=1;verticalAlign=top;" parent="1" vertex="1">
          <mxGeometry x="676" y="793" width="145" height="90" as="geometry" />
        </mxCell>
        <mxCell id="Bg1a5HAyLtSF39ObznLx-60" value="" style="shape=image;html=1;verticalAlign=top;verticalLabelPosition=bottom;labelBackgroundColor=#ffffff;imageAspect=0;aspect=fixed;image=https://cdn2.iconfinder.com/data/icons/boxicons-regular-vol-1/24/bx-calculator-128.png" parent="1" vertex="1">
          <mxGeometry x="728" y="828" width="39" height="39" as="geometry" />
        </mxCell>
        <mxCell id="mINiVnQ1aUE4iXKp3jBi-2" value="" style="shape=image;html=1;verticalAlign=top;verticalLabelPosition=bottom;labelBackgroundColor=#ffffff;imageAspect=0;aspect=fixed;image=https://cdn2.iconfinder.com/data/icons/essential-web-3/50/dashboard-control-gauge-measuring-amount-128.png" vertex="1" parent="1">
          <mxGeometry x="700" y="900" width="35" height="35" as="geometry" />
        </mxCell>
        <mxCell id="mINiVnQ1aUE4iXKp3jBi-8" style="edgeStyle=orthogonalEdgeStyle;rounded=0;orthogonalLoop=1;jettySize=auto;html=1;exitX=0;exitY=0.5;exitDx=0;exitDy=0;entryX=0.75;entryY=0;entryDx=0;entryDy=0;" edge="1" parent="1" source="mINiVnQ1aUE4iXKp3jBi-4" target="Bg1a5HAyLtSF39ObznLx-35">
          <mxGeometry relative="1" as="geometry" />
        </mxCell>
        <mxCell id="mINiVnQ1aUE4iXKp3jBi-14" value="Position Estimate" style="edgeLabel;html=1;align=center;verticalAlign=middle;resizable=0;points=[];" vertex="1" connectable="0" parent="mINiVnQ1aUE4iXKp3jBi-8">
          <mxGeometry x="0.1064" relative="1" as="geometry">
            <mxPoint x="52" y="15" as="offset" />
          </mxGeometry>
        </mxCell>
        <mxCell id="mINiVnQ1aUE4iXKp3jBi-4" value="Position Estimator" style="rounded=1;whiteSpace=wrap;html=1;verticalAlign=top;" vertex="1" parent="1">
          <mxGeometry x="584.5" y="440.35" width="145" height="90" as="geometry" />
        </mxCell>
        <mxCell id="mINiVnQ1aUE4iXKp3jBi-5" value="" style="html=1;dashed=0;aspect=fixed;verticalLabelPosition=bottom;verticalAlign=top;align=center;shape=mxgraph.gmdl.gps;strokeColor=#737373;fillColor=#737373;shadow=0;strokeWidth=2;sketch=0;" vertex="1" parent="1">
          <mxGeometry x="647" y="489" width="20" height="20" as="geometry" />
        </mxCell>
        <mxCell id="mINiVnQ1aUE4iXKp3jBi-10" value="" style="shape=image;html=1;verticalAlign=top;verticalLabelPosition=bottom;labelBackgroundColor=#ffffff;imageAspect=0;aspect=fixed;image=https://cdn3.iconfinder.com/data/icons/essential-pack-2/48/20-Compass-128.png" vertex="1" parent="1">
          <mxGeometry x="793" y="673" width="32" height="32" as="geometry" />
        </mxCell>
        <mxCell id="mINiVnQ1aUE4iXKp3jBi-13" style="edgeStyle=orthogonalEdgeStyle;rounded=0;orthogonalLoop=1;jettySize=auto;html=1;entryX=0.25;entryY=0;entryDx=0;entryDy=0;" edge="1" parent="1" source="mINiVnQ1aUE4iXKp3jBi-11" target="mINiVnQ1aUE4iXKp3jBi-4">
          <mxGeometry relative="1" as="geometry" />
        </mxCell>
        <mxCell id="mINiVnQ1aUE4iXKp3jBi-16" value="Position Measurement" style="edgeLabel;html=1;align=center;verticalAlign=middle;resizable=0;points=[];" vertex="1" connectable="0" parent="mINiVnQ1aUE4iXKp3jBi-13">
          <mxGeometry x="-0.3109" y="-2" relative="1" as="geometry">
            <mxPoint x="-59" y="2" as="offset" />
          </mxGeometry>
        </mxCell>
        <mxCell id="mINiVnQ1aUE4iXKp3jBi-11" value="&lt;div&gt;Marvelmind Beacon Node&lt;/div&gt;&lt;div&gt;(Left/Right)&lt;br&gt;&lt;/div&gt;" style="rounded=1;whiteSpace=wrap;html=1;verticalAlign=top;" vertex="1" parent="1">
          <mxGeometry x="548" y="206.00000000000003" width="145" height="90" as="geometry" />
        </mxCell>
        <mxCell id="mINiVnQ1aUE4iXKp3jBi-12" value="" style="shape=image;html=1;verticalAlign=top;verticalLabelPosition=bottom;labelBackgroundColor=#ffffff;imageAspect=0;aspect=fixed;image=https://cdn1.iconfinder.com/data/icons/electronics-outline-24/24/satellite_dish_dish_antenna_parabolic_antenna_radar_space-128.png" vertex="1" parent="1">
          <mxGeometry x="595.5" y="247" width="47" height="47" as="geometry" />
        </mxCell>
        <mxCell id="mINiVnQ1aUE4iXKp3jBi-17" value="" style="shape=image;html=1;verticalAlign=top;verticalLabelPosition=bottom;labelBackgroundColor=#ffffff;imageAspect=0;aspect=fixed;image=https://cdn1.iconfinder.com/data/icons/ui-essential-17/32/UI_Essential_Outline_2_essential-app-ui-location-map-pin-22-128.png" vertex="1" parent="1">
          <mxGeometry x="554" y="358.0041176470589" width="12.705882352941176" height="12.705882352941176" as="geometry" />
        </mxCell>
        <mxCell id="mINiVnQ1aUE4iXKp3jBi-18" value="" style="shape=image;html=1;verticalAlign=top;verticalLabelPosition=bottom;labelBackgroundColor=#ffffff;imageAspect=0;aspect=fixed;image=https://cdn1.iconfinder.com/data/icons/ui-essential-17/32/UI_Essential_Outline_2_essential-app-ui-location-map-pin-22-128.png" vertex="1" parent="1">
          <mxGeometry x="424" y="204.00411764705888" width="12.705882352941176" height="12.705882352941176" as="geometry" />
        </mxCell>
        <mxCell id="mINiVnQ1aUE4iXKp3jBi-19" value="" style="shape=image;html=1;verticalAlign=top;verticalLabelPosition=bottom;labelBackgroundColor=#ffffff;imageAspect=0;aspect=fixed;image=https://cdn1.iconfinder.com/data/icons/ui-essential-17/32/UI_Essential_Outline_2_essential-app-ui-location-map-pin-22-128.png" vertex="1" parent="1">
          <mxGeometry x="594" y="572.0041176470588" width="12.705882352941176" height="12.705882352941176" as="geometry" />
        </mxCell>
        <mxCell id="mINiVnQ1aUE4iXKp3jBi-50" style="edgeStyle=orthogonalEdgeStyle;rounded=0;orthogonalLoop=1;jettySize=auto;html=1;entryX=0;entryY=0.5;entryDx=0;entryDy=0;exitX=0.5;exitY=0;exitDx=0;exitDy=0;" edge="1" parent="1" source="mINiVnQ1aUE4iXKp3jBi-20" target="Bg1a5HAyLtSF39ObznLx-17">
          <mxGeometry relative="1" as="geometry" />
        </mxCell>
        <mxCell id="mINiVnQ1aUE4iXKp3jBi-51" value="&lt;div&gt;Environment Information&lt;/div&gt;&lt;div&gt;(Obstacles)&lt;br&gt;&lt;/div&gt;" style="edgeLabel;html=1;align=center;verticalAlign=middle;resizable=0;points=[];" vertex="1" connectable="0" parent="mINiVnQ1aUE4iXKp3jBi-50">
          <mxGeometry x="-0.3286" y="1" relative="1" as="geometry">
            <mxPoint x="74" y="55" as="offset" />
          </mxGeometry>
        </mxCell>
        <mxCell id="mINiVnQ1aUE4iXKp3jBi-20" value="Sonar Array" style="rounded=1;whiteSpace=wrap;html=1;verticalAlign=top;" vertex="1" parent="1">
          <mxGeometry x="-50" y="949" width="145" height="90" as="geometry" />
        </mxCell>
        <mxCell id="mINiVnQ1aUE4iXKp3jBi-33" value="" style="sketch=0;outlineConnect=0;fontColor=#232F3E;gradientColor=none;strokeColor=#232F3E;fillColor=#ffffff;dashed=0;verticalLabelPosition=bottom;verticalAlign=top;align=center;html=1;fontSize=12;fontStyle=0;aspect=fixed;shape=mxgraph.aws4.resourceIcon;resIcon=mxgraph.aws4.car;" vertex="1" parent="1">
          <mxGeometry x="647" y="979" width="60" height="60" as="geometry" />
        </mxCell>
        <mxCell id="mINiVnQ1aUE4iXKp3jBi-37" value="" style="shape=mxgraph.signs.tech.rss;html=1;pointerEvents=1;fillColor=#000000;strokeColor=none;verticalLabelPosition=bottom;verticalAlign=top;align=center;rotation=135;" vertex="1" parent="1">
          <mxGeometry x="-42.370000000000005" y="1013" width="25.74" height="26" as="geometry" />
        </mxCell>
        <mxCell id="mINiVnQ1aUE4iXKp3jBi-38" value="" style="shape=mxgraph.signs.tech.rss;html=1;pointerEvents=1;fillColor=#000000;strokeColor=none;verticalLabelPosition=bottom;verticalAlign=top;align=center;rotation=135;" vertex="1" parent="1">
          <mxGeometry x="-7.3700000000000045" y="1013" width="25.74" height="26" as="geometry" />
        </mxCell>
        <mxCell id="mINiVnQ1aUE4iXKp3jBi-39" value="" style="shape=mxgraph.signs.tech.rss;html=1;pointerEvents=1;fillColor=#000000;strokeColor=none;verticalLabelPosition=bottom;verticalAlign=top;align=center;rotation=135;" vertex="1" parent="1">
          <mxGeometry x="26.629999999999995" y="1013" width="25.74" height="26" as="geometry" />
        </mxCell>
        <mxCell id="mINiVnQ1aUE4iXKp3jBi-40" value="" style="shape=mxgraph.signs.tech.rss;html=1;pointerEvents=1;fillColor=#000000;strokeColor=none;verticalLabelPosition=bottom;verticalAlign=top;align=center;rotation=135;" vertex="1" parent="1">
          <mxGeometry x="61.629999999999995" y="1013" width="25.74" height="26" as="geometry" />
        </mxCell>
        <mxCell id="mINiVnQ1aUE4iXKp3jBi-46" style="edgeStyle=orthogonalEdgeStyle;rounded=0;orthogonalLoop=1;jettySize=auto;html=1;entryX=0;entryY=1;entryDx=0;entryDy=0;entryPerimeter=0;endArrow=none;endFill=0;" edge="1" parent="1" source="mINiVnQ1aUE4iXKp3jBi-45" target="mINiVnQ1aUE4iXKp3jBi-37">
          <mxGeometry relative="1" as="geometry" />
        </mxCell>
        <mxCell id="mINiVnQ1aUE4iXKp3jBi-47" style="edgeStyle=orthogonalEdgeStyle;rounded=0;orthogonalLoop=1;jettySize=auto;html=1;entryX=0;entryY=1;entryDx=0;entryDy=0;entryPerimeter=0;endArrow=none;endFill=0;" edge="1" parent="1" source="mINiVnQ1aUE4iXKp3jBi-45" target="mINiVnQ1aUE4iXKp3jBi-38">
          <mxGeometry relative="1" as="geometry">
            <Array as="points">
              <mxPoint x="22" y="1002" />
              <mxPoint x="5" y="1002" />
            </Array>
          </mxGeometry>
        </mxCell>
        <mxCell id="mINiVnQ1aUE4iXKp3jBi-48" style="edgeStyle=orthogonalEdgeStyle;rounded=0;orthogonalLoop=1;jettySize=auto;html=1;entryX=0;entryY=1;entryDx=0;entryDy=0;entryPerimeter=0;endArrow=none;endFill=0;" edge="1" parent="1" source="mINiVnQ1aUE4iXKp3jBi-45" target="mINiVnQ1aUE4iXKp3jBi-39">
          <mxGeometry relative="1" as="geometry">
            <Array as="points">
              <mxPoint x="22" y="1002" />
              <mxPoint x="39" y="1002" />
            </Array>
          </mxGeometry>
        </mxCell>
        <mxCell id="mINiVnQ1aUE4iXKp3jBi-49" style="edgeStyle=orthogonalEdgeStyle;rounded=0;orthogonalLoop=1;jettySize=auto;html=1;entryX=0;entryY=1;entryDx=0;entryDy=0;entryPerimeter=0;endArrow=none;endFill=0;" edge="1" parent="1" source="mINiVnQ1aUE4iXKp3jBi-45" target="mINiVnQ1aUE4iXKp3jBi-40">
          <mxGeometry relative="1" as="geometry" />
        </mxCell>
        <mxCell id="mINiVnQ1aUE4iXKp3jBi-45" value="" style="shape=image;html=1;verticalAlign=top;verticalLabelPosition=bottom;labelBackgroundColor=#ffffff;imageAspect=0;aspect=fixed;image=https://cdn1.iconfinder.com/data/icons/bootstrap-vol-2/16/cpu-128.png" vertex="1" parent="1">
          <mxGeometry x="12.5" y="977" width="20" height="20" as="geometry" />
        </mxCell>
        <mxCell id="mINiVnQ1aUE4iXKp3jBi-52" value="" style="shape=image;html=1;verticalAlign=top;verticalLabelPosition=bottom;labelBackgroundColor=#ffffff;imageAspect=0;aspect=fixed;image=https://cdn1.iconfinder.com/data/icons/competitive-strategy-and-corporate-training/512/578_adventure_game_mario_obstacle_plant_game_gaming_genres_programing-128.png" vertex="1" parent="1">
          <mxGeometry x="69" y="736" width="56" height="56" as="geometry" />
        </mxCell>
        <mxCell id="mINiVnQ1aUE4iXKp3jBi-56" value="Scissor Lift Controller" style="rounded=1;whiteSpace=wrap;html=1;verticalAlign=top;" vertex="1" parent="1">
          <mxGeometry x="127.5" y="947" width="145" height="90" as="geometry" />
        </mxCell>
        <mxCell id="mINiVnQ1aUE4iXKp3jBi-68" value="" style="group" vertex="1" connectable="0" parent="1">
          <mxGeometry x="149" y="979" width="49" height="48.96" as="geometry" />
        </mxCell>
        <mxCell id="mINiVnQ1aUE4iXKp3jBi-61" value="" style="rounded=1;whiteSpace=wrap;html=1;rotation=-30;" vertex="1" parent="mINiVnQ1aUE4iXKp3jBi-68">
          <mxGeometry x="-1.135135135135135" y="12.065852552264182" width="49.56756756756756" height="4.169816690856004" as="geometry" />
        </mxCell>
        <mxCell id="mINiVnQ1aUE4iXKp3jBi-62" value="" style="rounded=1;whiteSpace=wrap;html=1;rotation=30;flipH=0;flipV=0;" vertex="1" parent="mINiVnQ1aUE4iXKp3jBi-68">
          <mxGeometry x="-1.135135135135135" y="12.065852552264182" width="49.56756756756756" height="4.169816690856004" as="geometry" />
        </mxCell>
        <mxCell id="mINiVnQ1aUE4iXKp3jBi-60" value="" style="rounded=0;whiteSpace=wrap;html=1;fillStyle=solid;fillColor=#080707;gradientColor=none;strokeWidth=1;perimeterSpacing=0;glass=0;shadow=0;" vertex="1" parent="mINiVnQ1aUE4iXKp3jBi-68">
          <mxGeometry width="49" height="5.678048259889027" as="geometry" />
        </mxCell>
        <mxCell id="mINiVnQ1aUE4iXKp3jBi-63" value="" style="rounded=1;whiteSpace=wrap;html=1;rotation=-30;" vertex="1" parent="mINiVnQ1aUE4iXKp3jBi-68">
          <mxGeometry x="-1.3243243243243243" y="33.4472530309088" width="49.56756756756756" height="4.169816690856004" as="geometry" />
        </mxCell>
        <mxCell id="mINiVnQ1aUE4iXKp3jBi-64" value="" style="rounded=1;whiteSpace=wrap;html=1;rotation=30;flipH=0;flipV=0;" vertex="1" parent="mINiVnQ1aUE4iXKp3jBi-68">
          <mxGeometry x="-1.3243243243243243" y="33.4472530309088" width="49.56756756756756" height="4.169816690856004" as="geometry" />
        </mxCell>
        <mxCell id="mINiVnQ1aUE4iXKp3jBi-65" value="" style="ellipse;whiteSpace=wrap;html=1;aspect=fixed;" vertex="1" parent="mINiVnQ1aUE4iXKp3jBi-68">
          <mxGeometry x="41.05405405405405" y="23.42194907204224" width="3.193902146187578" height="3.193902146187578" as="geometry" />
        </mxCell>
        <mxCell id="mINiVnQ1aUE4iXKp3jBi-66" value="" style="ellipse;whiteSpace=wrap;html=1;aspect=fixed;" vertex="1" parent="mINiVnQ1aUE4iXKp3jBi-68">
          <mxGeometry x="2.27027027027027" y="23.42194907204224" width="3.193902146187578" height="3.193902146187578" as="geometry" />
        </mxCell>
        <mxCell id="mINiVnQ1aUE4iXKp3jBi-73" value="" style="shape=image;html=1;verticalAlign=top;verticalLabelPosition=bottom;labelBackgroundColor=#ffffff;imageAspect=0;aspect=fixed;image=https://cdn1.iconfinder.com/data/icons/bootstrap-vol-2/16/cpu-128.png" vertex="1" parent="1">
          <mxGeometry x="219" y="989" width="20" height="20" as="geometry" />
        </mxCell>
        <mxCell id="mINiVnQ1aUE4iXKp3jBi-85" value="" style="shape=image;html=1;verticalAlign=top;verticalLabelPosition=bottom;labelBackgroundColor=#ffffff;imageAspect=0;aspect=fixed;image=https://cdn1.iconfinder.com/data/icons/ui-essential-17/32/UI_Essential_Outline_2_essential-app-ui-location-map-pin-22-128.png" vertex="1" parent="1">
          <mxGeometry x="249" y="715.0041176470588" width="12.705882352941176" height="12.705882352941176" as="geometry" />
        </mxCell>
      </root>
    </mxGraphModel>
  </diagram>
</mxfile>
